{
  "source": "C:\\Users\\Peter\\Desktop\\stuff\\MIUN\\quantitative_research\\video_compression\\videos\\BVI-HD\\RockWave_1920x1080_30fps.mp4",
  "output": "C:\\Users\\Peter\\Desktop\\stuff\\MIUN\\quantitative_research\\video_compression\\compressed_videos\\BVI-HD\\hevc\\1.5\\RockWave_1920x1080_30fps_hevc.mp4",
  "codec": "hevc",
  "ok": "Input #0, mov,mp4,m4a,3gp,3g2,mj2, from 'C:\\Users\\Peter\\Desktop\\stuff\\MIUN\\quantitative_research\\video_compression\\videos\\BVI-HD\\RockWave_1920x1080_30fps.mp4':\n  Metadata:\n    major_brand     : isom\n    minor_version   : 512\n    compatible_brands: isomiso2avc1mp41\n    encoder         : Lavf54.28.101\n  Duration: 00:00:05.00, start: 0.000000, bitrate: 303557 kb/s\n  Stream #0:0[0x1](und): Video: h264 (High 4:4:4 Predictive) (avc1 / 0x31637661), yuv420p(progressive), 1920x1080, 303553 kb/s, 30 fps, 30 tbr, 30 tbn (default)\n    Metadata:\n      handler_name    : VideoHandler\n      vendor_id       : [0][0][0][0]\n[out#0/mp4 @ 0000026561e8ab00] Codec AVOption b:a (set bitrate (in bits/s)) has not been used for any stream. The most likely reason is either wrong type (e.g. a video option with no video streams) or that it is a private option of some decoder which was not actually used for any stream.\nStream mapping:\n  Stream #0:0 -> #0:0 (h264 (native) -> hevc (libx265))\nPress [q] to stop, [?] for help\n[libx265 @ 0000026562c475c0] Unknown option: \"aq-mode.\nx265 [info]: HEVC encoder version 4.1+190-8f11c33ac\nx265 [info]: build info [Windows][GCC 15.1.0][64 bit] 10bit\nx265 [info]: using cpu capabilities: MMX2 SSE2Fast LZCNT SSSE3 SSE4.2 AVX FMA3 BMI2 AVX2\nx265 [info]: Main 10 profile, Level-4 (Main tier)\nx265 [info]: Thread pool created using 12 threads\nx265 [info]: Slices                              : 1\nx265 [info]: frame threads / pool features       : 3 / wpp(17 rows)\nx265 [info]: Coding QT: max CU size, min CU size : 64 / 8\nx265 [info]: Residual QT: max TU size, max depth : 32 / 1 inter / 1 intra\nx265 [info]: ME / range / subpel / merge         : star / 57 / 3 / 3\nx265 [info]: Keyframe min / max / scenecut / bias  : 25 / 250 / 40 / 5.00 \nx265 [info]: Lookahead / bframes / badapt        : 25 / 4 / 2\nx265 [info]: b-pyramid / weightp / weightb       : 1 / 1 / 0\nx265 [info]: References / ref-limit  cu / depth  : 4 / on / on\nx265 [info]: AQ: mode / str / qg-size / cu-tree  : 2 / 1.0 / 32 / 1\nx265 [info]: Rate Control / qCompress            : ABR-1500 kbps / 0.60\nx265 [info]: VBV/HRD buffer / max-rate / init    : 1500 / 1500 / 0.750\nx265 [info]: tools: rect limit-modes rd=4 psy-rd=2.00 rdoq=2 psy-rdoq=1.00\nx265 [info]: tools: rskip mode=1 signhide tmvp strong-intra-smoothing lslices=4\nx265 [info]: tools: deblock sao dhdr10-info\nOutput #0, mp4, to 'C:\\Users\\Peter\\Desktop\\stuff\\MIUN\\quantitative_research\\video_compression\\compressed_videos\\BVI-HD\\hevc\\1.5\\RockWave_1920x1080_30fps_hevc.mp4':\n  Metadata:\n    major_brand     : isom\n    minor_version   : 512\n    compatible_brands: isomiso2avc1mp41\n    encoder         : Lavf62.3.100\n  Stream #0:0(und): Video: hevc (hev1 / 0x31766568), yuv420p10le(tv, progressive), 1920x1080, q=2-31, 1500 kb/s, 30 fps, 15360 tbn (default)\n    Metadata:\n      encoder         : Lavc62.11.100 libx265\n      handler_name    : VideoHandler\n      vendor_id       : [0][0][0][0]\n    Side data:\n      cpb: bitrate max/min/avg: 1500000/0/1500000 buffer size: 1500000 vbv_delay: N/A\nframe=    0 fps=0.0 q=0.0 size=       0KiB time=N/A bitrate=N/A speed=N/A elapsed=0:00:00.51    \nframe=    0 fps=0.0 q=0.0 size=       0KiB time=N/A bitrate=N/A speed=N/A elapsed=0:00:01.03    \nframe=    0 fps=0.0 q=0.0 size=       0KiB time=N/A bitrate=N/A speed=N/A elapsed=0:00:01.55    \nframe=    2 fps=1.0 q=50.9 size=       0KiB time=00:00:00.00 bitrate=N/A speed=   0x elapsed=0:00:02.07    \nframe=    6 fps=2.3 q=50.8 size=       0KiB time=00:00:00.13 bitrate=   2.6kbits/s speed=0.0514x elapsed=0:00:02.59    \nframe=    9 fps=2.9 q=51.0 size=       0KiB time=00:00:00.23 bitrate=   1.5kbits/s speed=0.0752x elapsed=0:00:03.10    \nframe=   13 fps=3.6 q=51.0 size=       0KiB time=00:00:00.36 bitrate=   1.0kbits/s speed=0.101x elapsed=0:00:03.61    \nframe=   16 fps=3.9 q=51.0 size=       0KiB time=00:00:00.46 bitrate=   0.8kbits/s speed=0.113x elapsed=0:00:04.13    \nframe=   20 fps=4.3 q=51.0 size=       0KiB time=00:00:00.60 bitrate=   0.6kbits/s speed=0.129x elapsed=0:00:04.64    \nframe=   24 fps=4.6 q=51.0 size=       0KiB time=00:00:00.73 bitrate=   0.5kbits/s speed=0.142x elapsed=0:00:05.16    \nframe=   28 fps=4.9 q=51.0 size=       0KiB time=00:00:00.86 bitrate=   0.4kbits/s speed=0.153x elapsed=0:00:05.67    \nframe=   31 fps=5.0 q=50.3 size=       0KiB time=00:00:00.96 bitrate=   0.4kbits/s speed=0.156x elapsed=0:00:06.20    \nframe=   35 fps=5.2 q=50.3 size=       0KiB time=00:00:01.10 bitrate=   0.3kbits/s speed=0.164x elapsed=0:00:06.70    \nframe=   38 fps=5.3 q=51.0 size=       0KiB time=00:00:01.20 bitrate=   0.3kbits/s speed=0.166x elapsed=0:00:07.23    \nframe=   41 fps=5.3 q=51.0 size=     256KiB time=00:00:01.30 bitrate=1613.5kbits/s speed=0.168x elapsed=0:00:07.74    \nframe=   45 fps=5.5 q=51.0 size=     256KiB time=00:00:01.43 bitrate=1463.4kbits/s speed=0.174x elapsed=0:00:08.25    \nframe=   49 fps=5.6 q=51.0 size=     256KiB time=00:00:01.56 bitrate=1338.8kbits/s speed=0.178x elapsed=0:00:08.77    \nframe=   52 fps=5.6 q=51.0 size=     256KiB time=00:00:01.66 bitrate=1258.5kbits/s speed=0.179x elapsed=0:00:09.29    \nframe=   56 fps=5.7 q=50.9 size=     256KiB time=00:00:01.80 bitrate=1165.3kbits/s speed=0.183x elapsed=0:00:09.81    \nframe=   61 fps=5.9 q=51.0 size=     256KiB time=00:00:01.96 bitrate=1066.5kbits/s speed=0.191x elapsed=0:00:10.31    \nframe=   64 fps=5.9 q=51.0 size=     256KiB time=00:00:02.06 bitrate=1014.9kbits/s speed=0.191x elapsed=0:00:10.83    \nframe=   68 fps=6.0 q=51.0 size=     256KiB time=00:00:02.20 bitrate= 953.4kbits/s speed=0.194x elapsed=0:00:11.35    \nframe=   72 fps=6.1 q=50.1 size=     256KiB time=00:00:02.33 bitrate= 898.9kbits/s speed=0.196x elapsed=0:00:11.87    \nframe=   76 fps=6.1 q=50.2 size=     256KiB time=00:00:02.46 bitrate= 850.3kbits/s speed=0.199x elapsed=0:00:12.39    \nframe=   81 fps=6.3 q=50.3 size=     256KiB time=00:00:02.63 bitrate= 796.5kbits/s speed=0.204x elapsed=0:00:12.89    \nframe=   85 fps=6.3 q=49.9 size=     256KiB time=00:00:02.76 bitrate= 758.1kbits/s speed=0.206x elapsed=0:00:13.42    \nframe=   89 fps=6.4 q=51.0 size=     512KiB time=00:00:02.90 bitrate=1446.4kbits/s speed=0.208x elapsed=0:00:13.94    \nframe=   94 fps=6.5 q=49.1 size=     512KiB time=00:00:03.06 bitrate=1367.8kbits/s speed=0.212x elapsed=0:00:14.45    \nframe=   98 fps=6.5 q=48.7 size=     512KiB time=00:00:03.20 bitrate=1310.8kbits/s speed=0.214x elapsed=0:00:14.98    \nframe=  101 fps=6.5 q=50.5 size=     512KiB time=00:00:03.30 bitrate=1271.1kbits/s speed=0.213x elapsed=0:00:15.49    \nframe=  105 fps=6.6 q=50.0 size=     512KiB time=00:00:03.43 bitrate=1221.7kbits/s speed=0.214x elapsed=0:00:16.01    \nframe=  109 fps=6.6 q=50.3 size=     512KiB time=00:00:03.56 bitrate=1176.1kbits/s speed=0.216x elapsed=0:00:16.52    \nframe=  113 fps=6.6 q=50.2 size=     512KiB time=00:00:03.70 bitrate=1133.7kbits/s speed=0.217x elapsed=0:00:17.04    \nframe=  117 fps=6.7 q=50.3 size=     512KiB time=00:00:03.83 bitrate=1094.3kbits/s speed=0.218x elapsed=0:00:17.56    \nframe=  121 fps=6.7 q=50.3 size=     512KiB time=00:00:03.96 bitrate=1057.5kbits/s speed=0.22x elapsed=0:00:18.06    \nframe=  122 fps=6.6 q=48.5 size=     512KiB time=00:00:04.00 bitrate=1048.7kbits/s speed=0.215x elapsed=0:00:18.59    \nframe=  126 fps=6.6 q=48.2 size=     512KiB time=00:00:04.13 bitrate=1014.8kbits/s speed=0.216x elapsed=0:00:19.10    \nframe=  130 fps=6.6 q=47.9 size=     512KiB time=00:00:04.26 bitrate= 983.1kbits/s speed=0.217x elapsed=0:00:19.62    \nframe=  134 fps=6.7 q=47.9 size=     768KiB time=00:00:04.40 bitrate=1430.0kbits/s speed=0.219x elapsed=0:00:20.13    \nframe=  138 fps=6.7 q=47.8 size=     768KiB time=00:00:04.53 bitrate=1387.9kbits/s speed=0.22x elapsed=0:00:20.65    \nframe=  142 fps=6.7 q=47.4 size=     768KiB time=00:00:04.66 bitrate=1348.2kbits/s speed=0.221x elapsed=0:00:21.16    \nframe=  145 fps=6.7 q=49.0 size=     768KiB time=00:00:04.76 bitrate=1320.0kbits/s speed=0.22x elapsed=0:00:21.68    \n[mp4 @ 0000026561e91440] Starting second pass: moving the moov atom to the beginning of the file\n[out#0/mp4 @ 0000026561e8ab00] video:892KiB audio:0KiB subtitle:0KiB other streams:0KiB global headers:2KiB muxing overhead: 0.578135%\nframe=  150 fps=6.8 q=50.2 Lsize=     897KiB time=00:00:04.93 bitrate=1489.6kbits/s speed=0.223x elapsed=0:00:22.15    \nx265 [info]: frame I:      1, Avg QP:47.87  kb/s: 4008.96 \nx265 [info]: frame P:     36, Avg QP:49.56  kb/s: 2449.63 \nx265 [info]: frame B:    113, Avg QP:50.56  kb/s: 1122.55 \nx265 [info]: Weighted P-Frames: Y:16.7% UV:11.1%\n\nencoded 150 frames in 21.79s (6.89 fps), 1460.29 kb/s, Avg QP:50.30\n",
  "seconds": 22.50119662284851,
  "probe_out": {}
}